<svg width="128" height="128" viewBox="0 0 128 128" fill="none" xmlns="http://www.w3.org/2000/svg"><path d="M63.99 83.361v16.593" stroke="#007FED" stroke-width="4" stroke-miterlimit="10"/><path fill-rule="evenodd" clip-rule="evenodd" d="M104.771 48.45v36.911H22.963V27.21h61.183a14.956 14.956 0 00-2.118 4H26.963v50.151h73.808V50.43a14.956 14.956 0 004-1.98z" fill="#007FED"/><path d="M45.923 50.286c3.257 0 5.897-2.664 5.897-5.95s-2.64-5.95-5.897-5.95-5.897 2.664-5.897 5.95 2.64 5.95 5.897 5.95zM67.745 73.26h25.244M67.745 63.014h25.244M55.133 64.706v-1.662a9.287 9.287 0 00-2.684-6.537 9.12 9.12 0 00-6.478-2.708 9.12 9.12 0 00-6.479 2.708 9.287 9.287 0 00-2.683 6.537v1.662M50.254 98.65h27.221M112.511 34.839a15.308 15.308 0 01-13.37 15.188c-.662.09-1.33.134-1.998.13a15.328 15.328 0 1115.328-15.318h.04z" stroke="#007FED" stroke-width="4" stroke-miterlimit="10"/><path d="M89.229 34.839l5.176 5.175 10.352-10.361" stroke="#007FED" stroke-width="4" stroke-miterlimit="10"/></svg>
